<svg width="120" height="90" viewBox="0 0 120 90" fill="none" xmlns="http://www.w3.org/2000/svg">
  <!-- Define gradients for 3D effect -->
  <defs>
    <!-- Orange gradient for D -->
    <linearGradient id="orangeGradient" x1="0%" y1="0%" x2="100%" y2="100%">
      <stop offset="0%" style="stop-color:#ff6b35;stop-opacity:1" />
      <stop offset="50%" style="stop-color:#ff8c42;stop-opacity:1" />
      <stop offset="100%" style="stop-color:#cc5530;stop-opacity:1" />
    </linearGradient>
    
    <!-- Orange shadow -->
    <linearGradient id="orangeShadow" x1="0%" y1="0%" x2="100%" y2="100%">
      <stop offset="0%" style="stop-color:#cc5530;stop-opacity:0.8" />
      <stop offset="100%" style="stop-color:#994027;stop-opacity:0.9" />
    </linearGradient>
    
    <!-- Purple gradient for B -->
    <linearGradient id="purpleGradient" x1="0%" y1="0%" x2="100%" y2="100%">
      <stop offset="0%" style="stop-color:#8b5cf6;stop-opacity:1" />
      <stop offset="50%" style="stop-color:#a855f7;stop-opacity:1" />
      <stop offset="100%" style="stop-color:#7c3aed;stop-opacity:1" />
    </linearGradient>
    
    <!-- Purple shadow -->
    <linearGradient id="purpleShadow" x1="0%" y1="0%" x2="100%" y2="100%">
      <stop offset="0%" style="stop-color:#6d28d9;stop-opacity:0.8" />
      <stop offset="100%" style="stop-color:#5b21b6;stop-opacity:0.9" />
    </linearGradient>
  </defs>
  
  <!-- Letter D (Orange) -->
  <g transform="translate(8, 5)">
    <!-- D Shadow/Depth -->
    <path d="M3 6 L3 72 L30 72 C42 72 50 64 50 50 L50 28 C50 14 42 6 30 6 Z" 
          fill="url(#orangeShadow)" transform="translate(2, 2)"/>
    
    <!-- D Main -->
    <path d="M0 3 L0 69 L27 69 C39 69 47 61 47 47 L47 25 C47 11 39 3 27 3 Z" 
          fill="url(#orangeGradient)"/>
          
    <!-- D Inner highlight -->
    <path d="M12 15 L12 57 L27 57 C33 57 35 53 35 47 L35 25 C35 19 33 15 27 15 Z" 
          fill="url(#orangeShadow)" opacity="0.3"/>
  </g>
  
  <!-- Letter B (Purple) - Positioned to intersect with D -->
  <g transform="translate(65, 5)">
    <!-- B Shadow/Depth -->
    <path d="M3 6 L3 72 L30 72 C36 72 40 68 40 62 L40 48 C40 44 38 42 35 41 C38 40 40 36 40 32 L40 16 C40 10 36 6 30 6 Z
             M15 18 L15 35 L28 35 C30 35 32 33 32 31 L32 22 C32 20 30 18 28 18 Z
             M15 47 L15 60 L30 60 C32 60 34 58 34 56 L34 51 C34 49 32 47 30 47 Z" 
          fill="url(#purpleShadow)" transform="translate(2, 2)"/>
    
    <!-- B Main -->
    <path d="M0 3 L0 69 L27 69 C33 69 37 65 37 59 L37 45 C37 41 35 39 32 38 C35 37 37 33 37 29 L37 13 C37 7 33 3 27 3 Z
             M12 15 L12 32 L25 32 C27 32 29 30 29 28 L29 19 C29 17 27 15 25 15 Z
             M12 44 L12 57 L27 57 C29 57 31 55 31 53 L31 48 C31 46 29 44 27 44 Z" 
          fill="url(#purpleGradient)"/>
          
    <!-- B Inner highlights -->
    <ellipse cx="21" cy="23" rx="4" ry="3" fill="white" opacity="0.2"/>
    <ellipse cx="23" cy="50" rx="4" ry="3" fill="white" opacity="0.2"/>
  </g>
</svg>